<svg width="30" height="30" viewBox="0 0 30 30" fill="none" xmlns="http://www.w3.org/2000/svg">
<g clip-path="url(#clip0_38_2281)">
<path d="M11.7564 19.6543L11.8541 19.5029C12.6376 18.2885 13.6287 17.2216 14.7822 16.351L14.8511 16.299L14.9311 16.3314C16.6386 17.0218 18.4621 17.3797 20.3039 17.386L11.7564 19.6543ZM11.7564 19.6543L11.9219 19.7254M11.7564 19.6543L11.9219 19.7254M11.9219 19.7254C16.29 21.6027 21.1841 21.8622 25.7264 20.4573L25.79 20.4376L25.8187 20.3776C26.4733 19.011 26.8685 17.5348 26.9844 16.0239L27.0048 15.7572M11.9219 19.7254L27.0048 15.7572M27.0048 15.7572L26.765 15.8758M27.0048 15.7572L26.765 15.8758M26.765 15.8758C24.7561 16.8689 22.5454 17.3857 20.3044 17.386L26.765 15.8758ZM26.8749 13.2498V13.2382L26.8731 13.2268C26.225 8.97206 23.4138 5.3591 19.4488 3.68523L18.977 3.48604L19.2633 3.91068C21.4393 7.1378 22.7229 10.883 22.9841 14.7664L22.9962 14.9465L23.1717 14.9042C24.4558 14.5946 25.6818 14.0809 26.8031 13.3827L26.8749 13.338V13.2534V13.2498ZM14.6677 2.72111L14.6673 2.72111C13.1889 2.7243 11.7232 2.99483 10.341 3.51961L10.093 3.61376L10.2994 3.78046C13.4823 6.35227 15.4336 10.1467 15.6742 14.2317L15.6799 14.3287L15.7703 14.3644C17.3424 14.9847 19.0253 15.275 20.7144 15.2172L20.8706 15.2119L20.8612 15.0559C20.5868 10.5061 18.7636 6.1873 15.6946 2.81727L15.6539 2.77257L15.5936 2.76796L15.5862 2.76739C15.2856 2.74442 14.9807 2.72111 14.6677 2.72111ZM8.02083 4.77839L7.9373 4.72391L7.85398 4.7787C3.58828 7.58321 1.49678 12.73 2.59711 17.7151L2.70166 18.1888L2.88662 17.7404C4.55508 13.6953 7.38524 10.2356 11.0194 7.79865L11.1547 7.70793L11.0551 7.57903C10.2075 6.48226 9.18192 5.53554 8.02083 4.77839ZM3.96816 21.1522L3.95229 21.2129L3.98381 21.2672C4.88217 22.8141 6.10392 24.1487 7.56543 25.1801L7.78394 25.3343L7.80507 25.0677C8.13222 20.9398 10.2043 17.1472 13.5012 14.6418L13.565 14.5934L13.5612 14.5134C13.4831 12.8436 13.0654 11.2071 12.3338 9.70398L12.257 9.54609L12.1116 9.64449C8.09052 12.365 5.19613 16.4551 3.96816 21.1522ZM9.91073 26.3827L9.91244 26.483L10.0052 26.521C11.4847 27.1279 13.0685 27.4402 14.6676 27.4407H14.6677C18.1403 27.4389 21.4507 25.9711 23.7835 23.3988L24.0853 23.0661L23.6434 23.1467C19.3546 23.929 14.9297 23.4014 10.9451 21.6326L10.799 21.5678L10.7413 21.7168C10.1655 23.2039 9.8835 24.7883 9.91073 26.3827ZM0.152299 15.1009C0.152299 7.08207 6.65287 0.581498 14.6717 0.581498C22.6904 0.581498 29.191 7.08207 29.191 15.1009C29.191 23.1196 22.6905 29.6202 14.6717 29.6202C6.65287 29.6202 0.152299 23.1196 0.152299 15.1009Z" fill="white" stroke="#3787FF" stroke-width="0.304598"/>
</g>
<defs>
<clipPath id="clip0_38_2281">
<rect width="29.2414" height="29.2414" fill="white" transform="translate(0 0.594727)"/>
</clipPath>
</defs>
</svg>
